<svg width="454" height="377" viewBox="0 0 454 377" fill="none" xmlns="http://www.w3.org/2000/svg">
<path d="M141.793 202.684C147.977 202.684 152.991 197.868 152.991 191.927C152.991 185.986 147.977 181.17 141.793 181.17C135.608 181.17 130.594 185.986 130.594 191.927C130.594 197.868 135.608 202.684 141.793 202.684Z" fill="#F2F2F2"/>
<path d="M316.325 12.5631H231.16V13.7317H316.325V12.5631Z" fill="#F2F2F2"/>
<path d="M255.493 2.04515H254.277V12.8552H255.493V2.04515Z" fill="#F2F2F2"/>
<path d="M292.601 2.04515H291.384V12.8552H292.601V2.04515Z" fill="#F2F2F2"/>
<path d="M453.806 295.378H368.641V296.547H453.806V295.378Z" fill="#F2F2F2"/>
<path d="M392.974 284.86H391.757V295.67H392.974V284.86Z" fill="#F2F2F2"/>
<path d="M430.082 284.86H428.865V295.67H430.082V284.86Z" fill="#F2F2F2"/>
<path d="M397.232 106.64H396.016V117.45H397.232V106.64Z" fill="#F2F2F2"/>
<path d="M434.34 106.64H433.123V117.45H434.34V106.64Z" fill="#F2F2F2"/>
<path d="M397.232 64.5684H396.016V75.3785H397.232V64.5684Z" fill="#F2F2F2"/>
<path d="M434.34 64.5684H433.123V75.3785H434.34V64.5684Z" fill="#F2F2F2"/>
<path d="M271.31 80.9296H186.145V82.0982H271.31V80.9296Z" fill="#F2F2F2"/>
<path d="M210.477 70.4117H209.261V81.2217H210.477V70.4117Z" fill="#F2F2F2"/>
<path d="M247.585 70.4117H246.368V81.2217H247.585V70.4117Z" fill="#F2F2F2"/>
<path d="M209.261 53.4661H124.096V54.6348H209.261V53.4661Z" fill="#F2F2F2"/>
<path d="M148.429 42.9482H147.212V53.7583H148.429V42.9482Z" fill="#F2F2F2"/>
<path d="M185.536 42.9482H184.32V53.7583H185.536V42.9482Z" fill="#F2F2F2"/>
<path d="M170.937 161.567H85.7715V162.736H170.937V161.567Z" fill="#F2F2F2"/>
<path d="M110.104 151.049H108.888V161.859H110.104V151.049Z" fill="#F2F2F2"/>
<path d="M147.212 151.049H145.995V161.859H147.212V151.049Z" fill="#F2F2F2"/>
<path d="M128.354 280.77H43.189V281.939H128.354V280.77Z" fill="#F2F2F2"/>
<path d="M67.5219 270.252H66.3053V281.062H67.5219V270.252Z" fill="#F2F2F2"/>
<path d="M104.629 270.252H103.413V281.062H104.629V270.252Z" fill="#F2F2F2"/>
<path d="M445.898 157.769H444.681V168.579H445.898V157.769Z" fill="#F2F2F2"/>
<path d="M93.6797 69.243H8.51465V70.4116H93.6797V69.243Z" fill="#F2F2F2"/>
<path d="M70.5635 70.1195H69.3469V80.9296H70.5635V70.1195Z" fill="#F2F2F2"/>
<path d="M33.4559 70.1195H32.2393V80.9296H33.4559V70.1195Z" fill="#F2F2F2"/>
<path d="M99.1546 222.337H13.9895V223.506H99.1546V222.337Z" fill="#F2F2F2"/>
<path d="M76.0384 223.214H74.8218V234.024H76.0384V223.214Z" fill="#F2F2F2"/>
<path d="M38.9308 223.214H37.7141V234.024H38.9308V223.214Z" fill="#F2F2F2"/>
<path d="M367.424 31.2616H282.259V32.4303H367.424V31.2616Z" fill="#F2F2F2"/>
<path d="M344.308 32.1381H343.092V42.9482H344.308V32.1381Z" fill="#F2F2F2"/>
<path d="M307.201 32.1381H305.984V42.9482H307.201V32.1381Z" fill="#F2F2F2"/>
<path d="M128.354 112.483H43.189V113.652H128.354V112.483Z" fill="#F2F2F2"/>
<path d="M67.5219 101.965H66.3053V112.776H67.5219V101.965Z" fill="#F2F2F2"/>
<path d="M104.629 101.965H103.413V112.776H104.629V101.965Z" fill="#F2F2F2"/>
<path d="M142.041 101.089V376.308H407.27V101.089H142.041ZM274.655 120.956C272.851 120.956 271.087 120.442 269.586 119.479C268.085 118.516 266.916 117.147 266.225 115.545C265.535 113.944 265.354 112.181 265.706 110.481C266.058 108.781 266.927 107.219 268.203 105.993C269.479 104.768 271.105 103.933 272.875 103.595C274.645 103.256 276.48 103.43 278.147 104.093C279.815 104.757 281.24 105.88 282.242 107.322C283.245 108.763 283.78 110.458 283.78 112.191C283.78 114.516 282.819 116.745 281.108 118.389C279.396 120.033 277.076 120.956 274.655 120.956V120.956Z" fill="#3F3D56"/>
<path d="M447 375.724H-96V394.724H447V375.724Z" fill="#3F3D56"/>
<path d="M310.851 158.645H171.545C170.416 158.645 169.332 158.214 168.534 157.447C167.735 156.68 167.287 155.64 167.287 154.555C167.287 153.47 167.735 152.43 168.534 151.663C169.332 150.896 170.416 150.465 171.545 150.465H310.851C311.98 150.465 313.063 150.896 313.862 151.663C314.66 152.43 315.109 153.47 315.109 154.555C315.109 155.64 314.66 156.68 313.862 157.447C313.063 158.214 311.98 158.645 310.851 158.645V158.645Z" fill="#F2F2F2"/>
<path d="M310.851 200.717H171.545C170.416 200.717 169.332 200.286 168.534 199.519C167.735 198.752 167.287 197.712 167.287 196.627C167.287 195.542 167.735 194.502 168.534 193.734C169.332 192.967 170.416 192.536 171.545 192.536H310.851C311.98 192.536 313.063 192.967 313.862 193.734C314.66 194.502 315.109 195.542 315.109 196.627C315.109 197.712 314.66 198.752 313.862 199.519C313.063 200.286 311.98 200.717 310.851 200.717Z" fill="#F2F2F2"/>
<path d="M310.851 242.789H171.545C170.416 242.789 169.332 242.358 168.534 241.591C167.735 240.824 167.287 239.783 167.287 238.698C167.287 237.614 167.735 236.573 168.534 235.806C169.332 235.039 170.416 234.608 171.545 234.608H310.851C311.98 234.608 313.063 235.039 313.862 235.806C314.66 236.573 315.109 237.614 315.109 238.698C315.109 239.783 314.66 240.824 313.862 241.591C313.063 242.358 311.98 242.789 310.851 242.789Z" fill="#F2F2F2"/>
<path d="M310.851 284.86H171.545C170.416 284.86 169.332 284.429 168.534 283.662C167.735 282.895 167.287 281.855 167.287 280.77C167.287 279.685 167.735 278.645 168.534 277.878C169.332 277.111 170.416 276.68 171.545 276.68H310.851C311.98 276.68 313.063 277.111 313.862 277.878C314.66 278.645 315.109 279.685 315.109 280.77C315.109 281.855 314.66 282.895 313.862 283.662C313.063 284.429 311.98 284.86 310.851 284.86V284.86Z" fill="#F2F2F2"/>
<path d="M310.851 326.932H171.545C170.416 326.932 169.332 326.501 168.534 325.734C167.735 324.967 167.287 323.927 167.287 322.842C167.287 321.757 167.735 320.717 168.534 319.949C169.332 319.182 170.416 318.751 171.545 318.751H310.851C311.98 318.751 313.063 319.182 313.862 319.949C314.66 320.717 315.109 321.757 315.109 322.842C315.109 323.927 314.66 324.967 313.862 325.734C313.063 326.501 311.98 326.932 310.851 326.932Z" fill="#F2F2F2"/>
<path d="M286.518 158.645H170.937C169.807 158.645 168.724 158.214 167.926 157.447C167.127 156.68 166.678 155.64 166.678 154.555C166.678 153.47 167.127 152.43 167.926 151.663C168.724 150.896 169.807 150.465 170.937 150.465H286.518C287.647 150.465 288.73 150.896 289.529 151.663C290.327 152.43 290.776 153.47 290.776 154.555C290.776 155.64 290.327 156.68 289.529 157.447C288.73 158.214 287.647 158.645 286.518 158.645V158.645Z" fill="#4070F4"/>
<path d="M250.627 200.717H170.937C169.807 200.717 168.724 200.286 167.926 199.519C167.127 198.752 166.678 197.712 166.678 196.627C166.678 195.542 167.127 194.502 167.926 193.734C168.724 192.967 169.807 192.536 170.937 192.536H250.627C251.756 192.536 252.839 192.967 253.638 193.734C254.436 194.502 254.885 195.542 254.885 196.627C254.885 197.712 254.436 198.752 253.638 199.519C252.839 200.286 251.756 200.717 250.627 200.717Z" fill="#4070F4"/>
<path d="M206.828 242.789H170.937C169.807 242.789 168.724 242.358 167.926 241.591C167.127 240.824 166.678 239.783 166.678 238.698C166.678 237.614 167.127 236.573 167.926 235.806C168.724 235.039 169.807 234.608 170.937 234.608H206.828C207.957 234.608 209.04 235.039 209.839 235.806C210.637 236.573 211.086 237.614 211.086 238.698C211.086 239.783 210.637 240.824 209.839 241.591C209.04 242.358 207.957 242.789 206.828 242.789V242.789Z" fill="#4070F4"/>
<path d="M297.468 284.86H170.937C169.807 284.86 168.724 284.429 167.926 283.662C167.127 282.895 166.678 281.855 166.678 280.77C166.678 279.685 167.127 278.645 167.926 277.878C168.724 277.111 169.807 276.68 170.937 276.68H297.468C298.597 276.68 299.68 277.111 300.479 277.878C301.277 278.645 301.726 279.685 301.726 280.77C301.726 281.855 301.277 282.895 300.479 283.662C299.68 284.429 298.597 284.86 297.468 284.86V284.86Z" fill="#4070F4"/>
<path d="M269.485 326.932H170.937C169.807 326.932 168.724 326.501 167.926 325.734C167.127 324.967 166.678 323.927 166.678 322.842C166.678 321.757 167.127 320.717 167.926 319.949C168.724 319.182 169.807 318.751 170.937 318.751H269.485C270.614 318.751 271.697 319.182 272.496 319.949C273.294 320.717 273.743 321.757 273.743 322.842C273.743 323.927 273.294 324.967 272.496 325.734C271.697 326.501 270.614 326.932 269.485 326.932V326.932Z" fill="#4070F4"/>
<path d="M368.641 150.465H367.424V158.645H368.641V150.465Z" fill="#4070F4"/>
<path d="M377.766 159.23C376.803 159.23 375.863 158.956 375.062 158.442C374.262 157.928 373.638 157.198 373.27 156.344C372.901 155.49 372.805 154.55 372.993 153.643C373.181 152.736 373.644 151.903 374.325 151.25C375.005 150.596 375.873 150.151 376.817 149.97C377.761 149.79 378.739 149.882 379.628 150.236C380.518 150.59 381.278 151.189 381.812 151.958C382.347 152.727 382.633 153.63 382.633 154.555C382.631 155.794 382.118 156.983 381.206 157.859C380.293 158.735 379.056 159.228 377.766 159.23V159.23ZM377.766 151.049C377.044 151.049 376.338 151.255 375.738 151.64C375.138 152.025 374.67 152.573 374.394 153.213C374.118 153.854 374.045 154.559 374.186 155.239C374.327 155.919 374.675 156.544 375.185 157.034C375.696 157.524 376.346 157.858 377.054 157.994C377.762 158.129 378.496 158.06 379.163 157.794C379.83 157.529 380.4 157.079 380.801 156.503C381.202 155.926 381.416 155.248 381.416 154.555C381.415 153.625 381.03 152.734 380.346 152.077C379.661 151.42 378.734 151.05 377.766 151.049V151.049Z" fill="#4070F4"/>
<path d="M368.641 192.536H367.424V200.717H368.641V192.536Z" fill="#4070F4"/>
<path d="M377.766 201.301C376.803 201.301 375.863 201.027 375.062 200.514C374.262 200 373.638 199.27 373.27 198.416C372.901 197.561 372.805 196.622 372.993 195.715C373.181 194.808 373.644 193.975 374.325 193.321C375.005 192.668 375.873 192.222 376.817 192.042C377.761 191.862 378.739 191.954 379.628 192.308C380.518 192.662 381.278 193.261 381.812 194.03C382.347 194.798 382.633 195.702 382.633 196.627C382.631 197.866 382.118 199.054 381.206 199.931C380.293 200.807 379.056 201.3 377.766 201.301ZM377.766 193.121C377.044 193.121 376.338 193.326 375.738 193.712C375.138 194.097 374.67 194.644 374.394 195.285C374.118 195.926 374.045 196.631 374.186 197.311C374.327 197.991 374.675 198.616 375.185 199.106C375.696 199.596 376.346 199.93 377.054 200.065C377.762 200.201 378.496 200.131 379.163 199.866C379.83 199.6 380.4 199.151 380.801 198.575C381.202 197.998 381.416 197.32 381.416 196.627C381.415 195.697 381.03 194.806 380.346 194.149C379.661 193.491 378.734 193.122 377.766 193.121V193.121Z" fill="#4070F4"/>
<path d="M368.641 234.608H367.424V242.789H368.641V234.608Z" fill="#4070F4"/>
<path d="M377.766 243.373C376.803 243.373 375.863 243.099 375.062 242.585C374.262 242.072 373.638 241.342 373.27 240.487C372.901 239.633 372.805 238.693 372.993 237.786C373.181 236.88 373.644 236.047 374.325 235.393C375.005 234.739 375.873 234.294 376.817 234.114C377.761 233.933 378.739 234.026 379.628 234.38C380.518 234.733 381.278 235.333 381.812 236.101C382.347 236.87 382.633 237.774 382.633 238.698C382.631 239.938 382.118 241.126 381.206 242.002C380.293 242.879 379.056 243.372 377.766 243.373V243.373ZM377.766 235.192C377.044 235.192 376.338 235.398 375.738 235.783C375.138 236.169 374.67 236.716 374.394 237.357C374.118 237.997 374.045 238.702 374.186 239.382C374.327 240.062 374.675 240.687 375.185 241.178C375.696 241.668 376.346 242.002 377.054 242.137C377.762 242.272 378.496 242.203 379.163 241.938C379.83 241.672 380.4 241.223 380.801 240.646C381.202 240.07 381.416 239.392 381.416 238.698C381.415 237.769 381.03 236.878 380.346 236.22C379.661 235.563 378.734 235.193 377.766 235.192V235.192Z" fill="#4070F4"/>
<path d="M368.641 276.68H367.424V284.86H368.641V276.68Z" fill="#4070F4"/>
<path d="M377.766 285.445C376.803 285.445 375.863 285.171 375.062 284.657C374.262 284.143 373.638 283.413 373.27 282.559C372.901 281.705 372.805 280.765 372.993 279.858C373.181 278.951 373.644 278.118 374.325 277.465C375.005 276.811 375.873 276.366 376.817 276.185C377.761 276.005 378.739 276.097 379.628 276.451C380.518 276.805 381.278 277.404 381.812 278.173C382.347 278.942 382.633 279.846 382.633 280.77C382.631 282.009 382.118 283.198 381.206 284.074C380.293 284.95 379.056 285.443 377.766 285.445V285.445ZM377.766 277.264C377.044 277.264 376.338 277.47 375.738 277.855C375.138 278.24 374.67 278.788 374.394 279.428C374.118 280.069 374.045 280.774 374.186 281.454C374.327 282.134 374.675 282.759 375.185 283.249C375.696 283.74 376.346 284.073 377.054 284.209C377.762 284.344 378.496 284.275 379.163 284.009C379.83 283.744 380.4 283.294 380.801 282.718C381.202 282.141 381.416 281.463 381.416 280.77C381.415 279.841 381.03 278.949 380.346 278.292C379.661 277.635 378.734 277.265 377.766 277.264Z" fill="#4070F4"/>
<path d="M368.641 318.751H367.424V326.932H368.641V318.751Z" fill="#4070F4"/>
<path d="M377.766 327.516C376.803 327.516 375.863 327.242 375.062 326.729C374.262 326.215 373.638 325.485 373.27 324.631C372.901 323.777 372.805 322.837 372.993 321.93C373.181 321.023 373.644 320.19 374.325 319.536C375.005 318.883 375.873 318.437 376.817 318.257C377.761 318.077 378.739 318.169 379.628 318.523C380.518 318.877 381.278 319.476 381.812 320.245C382.347 321.013 382.633 321.917 382.633 322.842C382.631 324.081 382.118 325.269 381.206 326.146C380.293 327.022 379.056 327.515 377.766 327.516V327.516ZM377.766 319.336C377.044 319.336 376.338 319.541 375.738 319.927C375.138 320.312 374.67 320.859 374.394 321.5C374.118 322.141 374.045 322.846 374.186 323.526C374.327 324.206 374.675 324.831 375.185 325.321C375.696 325.811 376.346 326.145 377.054 326.28C377.762 326.416 378.496 326.346 379.163 326.081C379.83 325.816 380.4 325.366 380.801 324.79C381.202 324.213 381.416 323.535 381.416 322.842C381.415 321.912 381.03 321.021 380.346 320.364C379.661 319.707 378.734 319.337 377.766 319.336Z" fill="#4070F4"/>
<path d="M377.766 156.892C379.11 156.892 380.199 155.846 380.199 154.555C380.199 153.264 379.11 152.218 377.766 152.218C376.422 152.218 375.333 153.264 375.333 154.555C375.333 155.846 376.422 156.892 377.766 156.892Z" fill="#4070F4"/>
<path d="M377.766 283.107C379.11 283.107 380.199 282.061 380.199 280.77C380.199 279.479 379.11 278.433 377.766 278.433C376.422 278.433 375.333 279.479 375.333 280.77C375.333 282.061 376.422 283.107 377.766 283.107Z" fill="#4070F4"/>
<path d="M377.766 325.179C379.11 325.179 380.199 324.133 380.199 322.842C380.199 321.551 379.11 320.504 377.766 320.504C376.422 320.504 375.333 321.551 375.333 322.842C375.333 324.133 376.422 325.179 377.766 325.179Z" fill="#4070F4"/>
<path d="M274.655 116.281C277.007 116.281 278.914 114.45 278.914 112.191C278.914 109.932 277.007 108.101 274.655 108.101C272.304 108.101 270.397 109.932 270.397 112.191C270.397 114.45 272.304 116.281 274.655 116.281Z" fill="#3F3D56"/>
<path d="M274.655 8.18061C277.007 8.18061 278.914 6.34932 278.914 4.0903C278.914 1.83129 277.007 0 274.655 0C272.304 0 270.397 1.83129 270.397 4.0903C270.397 6.34932 272.304 8.18061 274.655 8.18061Z" fill="#3F3D56"/>
<path d="M275.264 4.09027H274.047V112.191H275.264V4.09027Z" fill="#3F3D56"/>
<g clip-path="url(#clip0)">
<path d="M74 376C107.137 376 134 373.09 134 369.5C134 365.91 107.137 363 74 363C40.8629 363 14 365.91 14 369.5C14 373.09 40.8629 376 74 376Z" fill="#D0CDE1"/>
<path d="M103.974 105.71L105.605 101.361L97.4467 98.8755L96.6309 105.089L97.8546 110.06L103.974 105.71Z" fill="#6C63FF"/>
<path opacity="0.2" d="M103.974 105.71L105.605 101.361L97.4467 98.8755L96.6309 105.089L97.8546 110.06L103.974 105.71Z" fill="black"/>
<path d="M99.2824 102.914C105.14 102.914 109.889 95.681 109.889 86.7587C109.889 77.8364 105.14 70.6035 99.2824 70.6035C93.4247 70.6035 88.6761 77.8364 88.6761 86.7587C88.6761 95.681 93.4247 102.914 99.2824 102.914Z" fill="#FFB8B8"/>
<path d="M90.3079 86.7591L81.7413 108.507L94.3872 119.691L100.914 96.7008L90.3079 86.7591Z" fill="#FFB8B8"/>
<path d="M89.492 112.234L78.4778 105.399C78.4778 105.399 61.7526 109.749 60.1208 117.827C58.4891 125.904 58.4891 191.147 58.4891 191.147C58.4891 191.147 54.4098 207.302 60.1208 207.923C60.1208 207.923 58.4891 211.651 60.1208 212.273C61.7526 212.894 78.4778 212.273 85.0048 215.379C91.5317 218.486 104.586 220.972 104.586 217.865V212.273C104.586 212.273 107.441 207.923 105.809 200.467C104.178 193.011 102.138 176.855 102.138 176.855C102.138 176.855 114.376 135.846 113.152 130.875C111.928 125.904 96.987 110.533 96.987 110.533L89.492 112.234Z" fill="#4070F4"/>
<path d="M64.2002 191.147L64.6081 196.118L70.3192 185.555H68.2795L64.2002 191.147Z" fill="#FFB8B8"/>
<path d="M89.492 112.234L77.6619 107.885C77.6619 107.885 75.2144 104.778 75.2144 101.05C75.2144 97.3218 78.8857 91.7296 81.3333 88.0014C81.5464 87.6686 81.8016 87.4051 82.0835 87.2267C82.3654 87.0484 82.668 86.9589 82.9732 86.9637C85.3964 86.9327 88.3335 91.7731 88.3335 91.7731L85.0741 100.056L84.9272 100.422L89.492 112.234Z" fill="#4070F4"/>
<path d="M98.6106 104.815L105.605 101.361C105.605 101.361 107.849 114.72 105.401 115.341C102.954 115.962 89.4921 114.098 89.4921 114.098L98.6106 104.815Z" fill="#4070F4"/>
<path d="M60.9367 209.166L55.6335 255.146C55.6335 255.146 53.5939 260.738 54.4097 263.224C55.2256 265.709 55.6335 265.709 54.4097 266.952C53.1859 268.195 51.5542 266.952 51.9621 270.059C52.2066 271.901 52.3431 273.772 52.3701 275.651L40.948 335.301C40.948 335.301 33.6052 340.272 38.9083 343.379C44.2114 346.486 49.5145 348.971 50.7383 345.864C51.9621 342.757 50.7383 339.029 50.7383 339.029L69.5033 270.68C69.5033 270.68 72.3588 264.467 72.3588 260.738C72.3588 257.01 81.7413 230.292 81.7413 230.292C81.7413 230.292 82.1492 257.01 82.5571 258.874C82.9651 260.738 81.7413 264.467 81.7413 266.952C81.7413 269.437 80.9254 269.437 81.7413 270.68C82.5571 271.923 82.5571 286.214 82.5571 286.214C82.5571 286.214 77.6619 341.515 80.5175 342.136C83.373 342.757 91.5316 341.515 91.5316 339.029C91.5316 336.544 90.3078 335.923 90.3078 335.923L95.611 288.7C95.611 288.7 95.203 285.593 96.0189 283.107C96.8348 280.622 96.8348 280.622 96.8348 279.379C96.8348 278.136 96.4268 277.515 96.8348 276.894C97.1012 276.357 97.2446 275.702 97.2427 275.03C97.2427 275.03 96.4268 271.302 96.8348 270.68C97.2427 270.059 106.217 223.457 103.362 217.865C100.506 212.273 60.9367 209.166 60.9367 209.166Z" fill="#2F2E41"/>
<path d="M80.9255 340.272L78.0699 350.214C78.0699 350.214 71.543 361.398 76.4382 363.884C81.3334 366.369 82.9651 365.748 82.9651 365.748C82.9651 365.748 85.0048 366.369 85.0048 367.612C85.0048 368.854 101.322 378.175 102.546 370.097C103.77 362.02 89.9 347.107 89.9 347.107V339.651L80.9255 340.272Z" fill="#2F2E41"/>
<path d="M49.4596 344.874L50.0773 355.684C50.0773 355.684 53.9125 369.461 48.7526 369.431C43.5926 369.401 42.1771 368.017 42.1771 368.017C42.1771 368.017 40.1141 367.612 39.8532 368.79C39.5922 369.967 22.1749 370.847 22.7117 362.598C23.2486 354.348 39.5213 346.977 39.5213 346.977L41.0871 339.913L49.4596 344.874Z" fill="#2F2E41"/>
<path d="M88.952 91.1813C89.6071 91.1143 90.044 90.0266 90.2253 88.9917C90.4066 87.9568 90.4527 86.823 90.8228 85.9337C91.8369 83.4968 94.4738 84.4811 95.5447 82.1105C96.2033 80.6525 96.0654 78.2784 97.0161 77.3508C97.6165 76.7649 98.3818 77.0666 99.0433 77.4347C101.607 78.8722 103.974 81.0197 106.025 83.7687L106.877 82.7123L107.941 85.9523C108.354 85.1945 109.149 85.782 109.495 86.6243C109.842 87.4667 110.01 88.5432 110.503 89.1567C111.29 90.1346 112.519 89.3064 112.996 87.8884C113.472 86.4703 113.393 84.7368 113.228 83.1405C112.817 79.1411 111.94 75.2859 110.639 71.7561L111.612 70.8664L110.353 70.5927L110.835 68.9282L109.517 68.9047L110.037 67.4819C108.265 68.4083 106.434 66.7116 104.741 65.4467C101.91 63.3309 98.7247 62.3155 95.6505 63.1015C94.0754 63.4911 92.5708 64.3761 91.2326 65.7001C89.8944 67.0241 88.7519 68.7582 87.878 70.7919C86.5376 74.0018 85.7636 78.6629 86.4337 82.5069C87.0427 86.0011 89.7018 86.5449 88.952 91.1813Z" fill="#2F2E41"/>
<path d="M62.5684 115.341C62.5684 115.341 60.1208 114.72 58.4891 119.691C56.8574 124.661 44.6194 164.428 50.7384 176.855C56.8574 189.283 62.5684 193.011 62.5684 193.011L63.7922 193.632L69.9112 183.69L67.8715 179.341C67.8715 179.341 67.8715 174.991 66.2398 174.37C64.6081 173.749 64.6081 175.613 64.2001 173.127C63.7922 170.642 65.8319 172.506 63.7922 170.02C61.7525 167.535 63.3843 166.292 63.3843 166.292L62.5684 115.341Z" fill="#4070F4"/>
<path d="M105.809 198.292L105.401 203.263L99.6904 192.7H101.73L105.809 198.292Z" fill="#FFB8B8"/>
<path d="M105.197 128.7C105.197 128.7 110.909 124.351 112.54 129.322C114.172 134.293 125.39 171.574 119.271 184.001C113.152 196.428 107.441 200.156 107.441 200.156L106.217 200.778L100.098 190.836L102.138 186.486C102.138 186.486 102.138 182.137 103.77 181.516C105.401 180.894 105.401 182.758 105.809 180.273C106.217 177.787 104.178 179.651 106.217 177.166C108.257 174.681 106.625 173.438 106.625 173.438L105.197 128.7Z" fill="#4070F4"/>
<path opacity="0.2" d="M66.4438 139.885L61.9565 167.225L67.2596 177.166L64.8121 164.739L66.4438 139.885Z" fill="black"/>
<path opacity="0.2" d="M88.3335 91.7731L85.0741 100.056C83.0263 98.9746 82.8549 91.7358 82.9732 86.9637C85.3964 86.9327 88.3335 91.7731 88.3335 91.7731Z" fill="black"/>
</g>
<defs>
<clipPath id="clip0">
<rect width="376" height="406" fill="white" transform="translate(-83 -30)"/>
</clipPath>
</defs>
</svg>
